/* XPM */
static char * maximize_prelight_xpm[] = {
"23 13 6 1",
" 	c #000000",
".	c #B3B7B9",
"+	c #5E6264",
"@	c #1E1E1E",
"#	c #8A1919",
"$	c #333739",
"                       ",
".......................",
"+++++++++++++++++++++++",
"+++++++++++++++++++++++",
"+++++++++@@@@@+++++++++",
"+++++++++@###@+++++++++",
"+++++++++@###@+++++++++",
"+++++++++@###@+++++++++",
"+++++++++@@@@@+++++++++",
"+++++++++++++++++++++++",
"+++++++++++++++++++++++",
"$$$$$$$$$$$$$$$$$$$$$$$",
"                       "};
