/* XPM */
static char * maximize_inactive_xpm[] = {
"23 13 5 1",
" 	c #000000",
".	c #474D5A",
"+	c #1E222B",
"@	c #6B6B6B",
"#	c #14161C",
"                       ",
".......................",
"+++++++++++++++++++++++",
"+++++++++++++++++++++++",
"+++++++++     +++++++++",
"+++++++++ @@@ +++++++++",
"+++++++++ @@@ +++++++++",
"+++++++++ @@@ +++++++++",
"+++++++++     +++++++++",
"+++++++++++++++++++++++",
"+++++++++++++++++++++++",
"#######################",
"                       "};
