/* XPM */
static char * hide_prelight_xpm[] = {
"23 13 7 1",
" 	c #000000",
".	c #F2F2F2",
"+	c #C3C3C3",
"@	c #CDCDCD",
"#	c #AC3535",
"$	c #A2A2A2",
"%	c #6B6B6B",
"                       ",
".......................",
"+++++++++++++++++++++++",
"+++++++++++++++++++++++",
"+++++++++@@@@@+++++++++",
"+++++++++@###$+++++++++",
"+++++++++@###$+++++++++",
"+++++++++@###$+++++++++",
"+++++++++@$$$$+++++++++",
"+++++++++++++++++++++++",
"+++++++++++++++++++++++",
"%%%%%%%%%%%%%%%%%%%%%%%",
"                       "};
