/* XPM */
static char * title_2_active_xpm[] = {
"5 13 4 1",
" 	c #000000",
".	c #F2F2F2",
"+	c #C3C3C3",
"@	c #6B6B6B",
"     ",
".....",
"+++++",
"+++++",
"+++++",
"+++++",
"+++++",
"+++++",
"+++++",
"+++++",
"+++++",
"@@@@@",
"     "};
